# Alias OBJ Model File
# Exported from SketchUp, (c) 2000-2012 Trimble Navigation Limited
# File units = inches

mtllib sw1.mtl

g Mesh1 sw1_1 Model

usemtl Color_D03
v 1303.09 -39.0666 46.8375
vt -35.0004 74.6875
vn 0 -1 -0
v 1268.08 -39.0666 121.525
vt 0 0
v 1268.08 -39.0666 46.8375
vt 0 74.6875
f 1/1/1 2/2/1 3/3/1

v 1303.09 -39.0666 121.525
vt -35.0004 0
f 2/2/1 1/1/1 4/4/1

v 1317.88 -39.0666 84.1812
vt -49.795 37.3438
f 4/4/1 1/1/1 5/5/1

vt 56.5454 39.9904
vn 0.693539 -0.665965 -0.274762
v 1347.65 -8.06659 84.1812
vt 5.41376 81.5464
vt 16.3778 39.9904
f 1/6/2 6/7/2 5/8/2

v 1326.05 -8.06659 46.8375
vt 35.633 73.3657
vn 0.728696 -0.539802 -0.421446
vt -7.50668 73.3657
vt 47.13 36.5395
f 7/9/3 6/10/3 1/11/3

vt 35.633 -32.1375
vn 0.665697 0.63923 -0.38501
v 1317.88 22.9334 84.1812
vt 7.39651 8.17378
vt -7.50668 -32.1375
f 7/12/4 8/13/4 6/14/4

v 1303.09 22.9334 46.8375
vt 56.5454 17.0023
vn 0.765681 0.5672 -0.303343
vt 16.3778 17.0023
vt 48.0872 -20.6383
f 9/15/5 8/16/5 7/17/5

vt 35.0004 74.6875
vn 0 1 -0
v 1303.09 22.9334 121.525
vt 35.0004 0
vt 49.795 37.3438
f 9/18/6 10/19/6 8/20/6

v 1268.08 22.9334 46.8375
f 11/3/6 10/19/6 9/18/6

v 1268.08 22.9334 121.525
f 10/19/6 11/3/6 12/2/6

vt -74.6875 62
vn -1 0 -0
vt 0 62
f 11/21/7 2/2/7 12/22/7

vt -74.6875 0
f 2/2/7 11/21/7 3/23/7

vn 0 0 -1
f 11/22/8 1/4/8 3/2/8

vt -57.9645 31
f 1/4/8 11/22/8 7/24/8

vt -35.0004 62
f 7/24/8 11/22/8 9/25/8

vn 0 0 1
v 1326.05 -8.06659 121.525
vt 57.9645 31
f 2/2/9 13/26/9 12/22/9

f 13/26/9 2/2/9 4/19/9

vt 53.059 18.4566
vn 0.765681 -0.5672 0.303343
vt 21.3496 56.0971
vt 12.8914 18.4566
f 5/27/10 13/28/10 4/29/10

vt 72.1598 55.914
vn 0.665697 -0.63923 0.38501
vt 29.0201 55.914
vt 57.2566 15.6028
f 6/30/11 13/31/11 5/32/11

vt 72.1598 -0.990004
vn 0.728696 0.539802 0.421446
vt 17.523 35.8362
vt 29.0201 -0.990004
f 6/33/12 10/34/12 13/35/12

vt 53.059 24.5806
vn 0.693539 0.665965 0.274762
vt 12.8914 24.5806
vt 64.0231 -16.9753
f 8/36/13 10/37/13 6/38/13

vt 35.0004 62
f 12/22/9 13/26/9 10/39/9

