# Alias OBJ Model File
# Exported from SketchUp, (c) 2000-2012 Trimble Navigation Limited
# File units = inches

mtllib sw5.mtl

g Mesh1 sw5_1 Model

usemtl Color_001
v -1854.95 -10 78.0804
vt 284.056 -125.241
vn -0.0320729 -0.978069 0.205795
v -2087.82 0 90.6023
vt 59.7841 -60.5352
vn -0.0320608 -0.983541 0.17782
v -2124.84 0 82.1698
vt 21.8163 -60.5352
vn -0.0343736 -0.983274 0.178861
f 1/1/1 2/2/2 3/3/3

v -1821.57 -10 82.3543
vt 329.272 -92.5593
vn -0.0295256 -0.978871 0.202335
vt 66.2303 -49.3867
vt 295.623 -92.5593
f 4/4/4 2/5/2 1/6/1

vt 319.566 -123.63
v -2050.55 0 98.5051
vt 98.9185 -59.5445
vn -0.0298644 -0.983694 0.177354
vt 60.8231 -59.5445
f 4/7/4 5/8/5 2/9/2

v -1787.98 -10 86.3598
vt 364.017 -90.1634
vn -0.0271638 -0.979476 0.19972
vt 104.722 -45.8772
vt 330.179 -90.1634
f 6/10/6 5/11/5 4/12/4

vt 355.241 -121.312
v -2013.06 0 105.875
vt 138.148 -57.9635
vn -0.0277633 -0.983739 0.177448
vt 99.933 -57.9635
f 6/13/6 7/14/7 5/15/5

v -1754.17 -10 90.0951
vt 398.902 -87.4213
vn -0.0249552 -0.979906 0.197894
vt 143.312 -42.1877
vt 364.888 -87.4213
f 8/16/8 7/17/7 6/18/6

vt 391.058 -118.285
v -1975.34 0 112.708
vt 177.457 -55.7955
vn -0.0257385 -0.983676 0.178099
vt 139.13 -55.7955
f 8/19/8 9/20/9 7/21/7

v -1720.17 -10 93.5585
vt 433.915 -84.3448
vn -0.022872 -0.980173 0.19682
vt 181.991 -38.3353
vt 399.737 -84.3448
f 10/22/10 9/23/9 8/24/8

vt 426.995 -114.545
v -1937.43 0 119.002
vt 216.829 -53.0432
vn -0.0237723 -0.983504 0.179318
vt 178.399 -53.0432
f 10/25/10 11/26/11 9/27/9

v -1685.99 -10 96.7485
vt 469.041 -80.9427
vn -0.0208895 -0.980285 0.196479
vt 220.75 -34.3343
vt 434.712 -80.9427
f 12/28/12 11/29/11 10/30/10

vt 463.031 -110.088
v -1899.34 0 124.754
vt 256.249 -49.7084
vn -0.0218475 -0.983217 0.181129
vt 217.724 -49.7084
f 12/31/12 13/32/13 11/33/11

v -1651.64 -10 99.6639
vt 504.269 -77.2221
vn -0.0189851 -0.980246 0.19687
vt 259.579 -30.196
vt 469.8 -77.2221
f 14/34/14 13/35/13 12/36/12

vt 499.142 -104.911
v -1861.08 0 129.961
vt 295.701 -45.7923
vn -0.019947 -0.982804 0.183569
vt 257.089 -45.7923
f 14/37/14 15/38/15 13/39/13

v -1617.15 -10 102.303
vt 539.583 -73.1876
vn -0.0171379 -0.980051 0.198007
vt 298.47 -25.9294
vt 504.988 -73.1876
f 16/40/16 15/41/15 14/42/14

vt 535.306 -99.0097
v -1822.67 0 134.622
vt 335.17 -41.295
vn -0.018053 -0.982253 0.186688
vt 296.479 -41.295
f 16/43/16 17/44/17 15/45/15

v -1582.52 -10 104.666
vt 574.971 -68.8424
vn -0.0153274 -0.979692 0.19992
vt 337.412 -21.5416
vt 540.262 -68.8424
f 18/46/18 17/47/17 16/48/16

vt 571.5 -92.3785
v -1784.13 0 138.734
vt 374.638 -36.2157
vn -0.0161463 -0.981543 0.190557
vt 335.879 -36.2157
f 18/49/18 19/50/19 17/51/17

v -1547.77 -10 106.75
vt 610.419 -64.1882
vn -0.0135328 -0.979155 0.202661
vt 376.395 -17.0375
vt 575.608 -64.1882
f 20/52/20 19/53/19 18/54/18

vt 607.703 -85.0125
v -1745.47 0 142.296
vt 414.092 -30.5527
vn -0.0142059 -0.980647 0.195267
vt 375.271 -30.5527
f 20/55/20 21/56/21 19/57/19

v -1512.91 -10 108.555
vt 645.913 -59.2249
vn -0.0117326 -0.978418 0.206303
vt 415.41 -12.42
vt 611.013 -59.2249
f 22/58/22 21/59/21 20/60/20

vt 643.89 -76.9058
v -1706.72 0 145.305
vt 453.514 -24.3031
vn -0.00805343 -0.974013 0.226348
vt 414.641 -24.3031
f 22/61/22 23/62/23 21/63/21

v -1477.97 -10 110.08
vt 681.438 -53.9513
vn -0.00471563 -0.969603 0.244639
vt 454.447 -7.69058
vt 646.462 -53.9513
f 24/64/24 23/65/23 22/66/22

vt 683.625 -21.8633
v 231.06 0 145.305
vt 2392.66 14.7534
vn -4.66295e-18 -0.961986 0.273099
vt 454.88 14.7534
f 24/67/24 25/68/25 23/69/23

v 154.812 -10 110.08
vt 2316.41 -21.8633
f 25/68/25 24/67/24 26/70/25

vt -683.625 35.2248
vn -1.60614e-18 -1 1.81226e-17
v -1477.97 -10 36.9993
vt -683.625 108.306
vt -2316.41 35.2248
f 24/71/26 27/72/26 26/73/26

vt -648.682 36.7501
f 22/74/26 27/72/26 24/71/26

v -1512.91 -10 38.5246
vt -648.682 106.78
f 22/74/26 28/75/26 27/72/26

vt -613.829 38.5553
f 20/76/26 28/75/26 22/74/26

v -1547.77 -10 40.3297
vt -613.829 104.975
f 20/76/26 29/77/26 28/75/26

vt -579.08 40.6394
f 18/78/26 29/77/26 20/76/26

v -1582.52 -10 42.4139
vt -579.08 102.891
f 18/78/26 30/79/26 29/77/26

vt -544.451 43.0017
f 16/80/26 30/79/26 18/78/26

v -1617.15 -10 44.7762
vt -544.451 100.529
f 16/80/26 31/81/26 30/79/26

vt -509.956 45.6411
f 14/82/26 31/81/26 16/80/26

v -1651.64 -10 47.4155
vt -509.956 97.8895
f 14/82/26 32/83/26 31/81/26

vt -475.611 48.5565
f 12/84/26 32/83/26 14/82/26

v -1685.99 -10 50.3309
vt -475.611 94.9741
f 12/84/26 33/85/26 32/83/26

vt -441.431 51.7465
f 10/86/26 33/85/26 12/84/26

v -1720.17 -10 53.521
vt -441.431 91.784
f 10/86/26 34/87/26 33/85/26

vt -407.429 55.2099
f 8/88/26 34/87/26 10/86/26

v -1754.17 -10 56.9844
vt -407.429 88.3206
f 8/88/26 35/89/26 34/87/26

vt -373.621 58.9452
f 6/90/26 35/89/26 8/88/26

v -1787.98 -10 60.7196
vt -373.621 84.5854
f 6/90/26 36/91/26 35/89/26

vt -340.022 62.9507
f 4/92/26 36/91/26 6/90/26

v -1821.57 -10 64.7251
vt -340.022 80.5799
f 4/92/26 37/93/26 36/91/26

vt -306.645 67.2246
f 1/94/26 37/93/26 4/92/26

v -1854.95 -10 68.9991
vt -306.645 76.3059
f 1/94/26 38/95/26 37/93/26

v -1888.09 -10 73.5397
vt -273.505 71.7653
f 38/95/26 1/94/26 39/96/26

vt 294.681 -94.5941
vt 27.8458 -52.695
vt 261.232 -94.5941
vn -0.034388 -0.980614 0.192908
f 1/97/1 3/98/3 39/99/27

vt 248.733 -126.149
vt 20.7608 -60.9316
v -2161.6 0 73.2112
vt -17.0716 -60.9316
vn -0.0363089 -0.988175 0.148972
f 39/100/27 3/101/3 40/102/28

v -1888.09 8.4 72.4951
vt 248.485 142.347
vn -0.02835 0.986287 0.162586
vt -17.0716 76.3495
vn -0.0301388 0.991867 0.123657
vt 20.7608 76.3495
vn -0.0283761 0.98828 0.14999
f 41/103/29 40/104/30 3/105/31

vt -282.968 2.19143
vn -0.0291357 0.985455 -0.167422
v -2124.84 0 64.2526
vt -54.904 -62.4264
vn -0.0291047 0.987625 -0.154112
vt -17.0716 -62.4264
vn -0.0307825 0.991515 -0.126298
f 41/106/32 42/107/33 40/108/34

v -1854.95 8.4 68.1288
vt -314.099 -22.5338
vn -0.0270792 0.98349 -0.178927
vt -47.0289 -62.5231
vt -280.673 -22.5338
f 43/109/35 42/110/33 41/111/32

vt -316.127 1.07553
v -2087.82 0 55.8201
vt -91.8076 -63.1963
vn -0.027034 0.987948 -0.152405
vt -53.8398 -63.1963
f 43/112/35 44/113/36 42/114/33

v -1821.57 8.4 64.0189
vt -347.407 -25.689
vn -0.024788 0.984298 -0.174768
vt -84.159 -67.2231
vt -313.778 -25.689
f 45/115/37 44/116/36 43/117/35

vt -349.488 -0.685637
v -2050.55 0 47.9174
vt -128.83 -64.4932
vn -0.0250891 0.98817 -0.151296
vt -90.7343 -64.4932
f 45/118/37 46/119/38 44/120/36

v -1787.98 8.4 60.1673
vt -380.887 -28.9981
vn -0.022692 0.984921 -0.171513
vt -121.411 -71.9033
vt -347.067 -28.9981
f 47/121/39 46/122/38 45/123/37

vt -383.027 -3.09223
v -2013.06 0 40.5478
vt -165.954 -66.3099
vn -0.0232467 0.988299 -0.150746
vt -127.739 -66.3099
f 47/124/39 48/125/40 46/126/38

v -1754.17 8.4 56.5755
vt -414.523 -32.4708
vn -0.0207555 0.985385 -0.169073
vt -158.776 -76.5671
vt -380.525 -32.4708
f 49/127/41 48/128/40 47/129/39

vt -416.721 -6.14404
v -1975.34 0 33.7146
vt -203.164 -68.6393
vn -0.0214868 0.988341 -0.150734
vt -164.837 -68.6393
f 49/130/41 50/131/42 48/132/40

v -1720.17 8.4 53.2451
vt -448.303 -36.1139
vn -0.0189483 0.98571 -0.167385
vt -196.244 -81.2158
vt -414.138 -36.1139
f 51/133/43 50/134/42 49/135/41

vt -450.548 -9.84033
v -1937.43 0 27.4206
vt -240.444 -71.4746
vn -0.0197913 0.988297 -0.151255
vt -202.014 -71.4746
f 51/136/43 52/137/44 50/138/42

v -1685.99 8.4 50.1775
vt -482.211 -39.9324
vn -0.0172449 0.985906 -0.166407
vt -233.804 -85.8491
vt -447.893 -39.9324
f 53/139/45 52/140/44 51/141/43

vt -484.483 -14.1797
v -1899.34 0 21.6686
vt -277.777 -74.8084
vn -0.0181434 0.988166 -0.152314
vt -239.252 -74.8084
f 53/142/45 54/143/46 52/144/44

v -1651.64 8.4 47.3741
vt -516.233 -43.9297
vn -0.015623 0.985982 -0.166118
vt -271.446 -90.4658
vt -481.774 -43.9297
f 55/145/47 54/146/46 53/147/45

vt -518.505 -19.16
v -1861.08 0 16.4612
vt -315.147 -78.6333
vn -0.016527 0.987943 -0.153934
vt -276.536 -78.6333
f 55/148/47 56/149/48 54/150/46

v -1617.15 8.4 44.836
vt -550.355 -48.1077
vn -0.0140622 0.985939 -0.166513
vt -309.161 -95.0634
vt -515.768 -48.1077
f 57/151/49 56/152/48 55/153/47

vt -552.589 -24.7778
v -1822.67 0 11.8004
vt -352.539 -82.941
vn -0.0149259 0.987621 -0.156149
vt -313.849 -82.941
f 57/154/49 58/155/50 56/156/48

v -1582.52 8.4 42.5645
vt -584.563 -52.4672
vn -0.0125433 0.985774 -0.167605
vt -346.937 -99.6389
vt -549.86 -52.4672
f 59/157/51 58/158/50 57/159/49

vt -586.712 -31.0283
v -1784.13 0 7.68842
vt -389.935 -87.7224
vn -0.0133231 0.987187 -0.159009
vt -351.175 -87.7224
f 59/160/51 60/161/52 58/162/50

v -1547.77 8.4 40.5603
vt -618.841 -57.0076
vn -0.0110478 0.985481 -0.169425
vt -384.763 -104.188
vt -584.035 -57.0076
f 61/163/53 60/164/52 59/165/51

vt -620.849 -37.9048
v -1745.47 0 4.12693
vt -427.32 -92.9669
vn -0.0117003 0.986625 -0.162586
vt -388.499 -92.9669
f 61/166/53 62/167/54 60/168/52

v -1512.91 8.4 38.8245
vt -653.175 -61.7272
vn -0.00955662 0.985046 -0.172025
vt -422.63 -108.707
vt -618.279 -61.7272
f 63/169/55 62/170/54 61/171/53

vt -654.978 -45.3978
v -1706.72 0 1.11749
vt -464.677 -98.6617
vn -0.00659431 0.982178 -0.187836
vt -425.804 -98.6617
f 63/172/55 64/173/56 62/174/54

v -1477.97 8.4 37.3578
vt -687.55 -66.6226
vn -0.00378372 0.979156 -0.203072
vt -460.526 -113.188
vt -652.577 -66.6226
f 65/175/57 64/176/56 63/177/55

vt -683.625 -91.0644
v 231.06 0 1.11749
vt -2392.66 -128.265
vn 0 0.974174 -0.2258
vt -454.88 -128.265
f 65/178/57 66/179/58 64/180/56

v 152.543 8.4 37.3578
vt -2314.14 -91.0644
f 66/179/58 65/178/57 67/181/58

vt 2314.14 107.947
vn 0 1 -0
vt 683.625 107.947
v 57.2288 8.4 72.4951
vt 2218.83 72.8099
f 67/182/59 65/183/59 68/184/59

v 152.543 8.4 107.632
vt 2314.14 37.6726
f 65/183/59 69/185/59 68/184/59

v -1477.97 8.4 107.632
vt 683.625 37.6726
f 65/183/59 70/186/59 69/185/59

vt 648.682 106.48
f 63/187/59 70/186/59 65/183/59

v -1512.91 8.4 106.166
vt 648.682 39.1394
f 63/187/59 71/188/59 70/186/59

vt 613.829 104.745
f 61/189/59 71/188/59 63/187/59

v -1547.77 8.4 104.43
vt 613.829 40.8752
f 61/189/59 72/190/59 71/188/59

vt 579.08 102.741
f 59/191/59 72/190/59 61/189/59

v -1582.52 8.4 102.426
vt 579.08 42.8793
f 59/191/59 73/192/59 72/190/59

vt 544.451 100.469
f 57/193/59 73/192/59 59/191/59

v -1617.15 8.4 100.154
vt 544.451 45.1509
f 57/193/59 74/194/59 73/192/59

vt 509.956 97.9309
f 55/195/59 74/194/59 57/193/59

v -1651.64 8.4 97.6161
vt 509.956 47.6889
f 55/195/59 75/196/59 74/194/59

vt 475.611 95.1275
f 53/197/59 75/196/59 55/195/59

v -1685.99 8.4 94.8127
vt 475.611 50.4923
f 53/197/59 76/198/59 75/196/59

vt 441.431 92.0599
f 51/199/59 76/198/59 53/197/59

v -1720.17 8.4 91.7451
vt 441.431 53.5599
f 51/199/59 77/200/59 76/198/59

vt 407.429 88.7295
f 49/201/59 77/200/59 51/199/59

v -1754.17 8.4 88.4147
vt 407.429 56.8903
f 49/201/59 78/202/59 77/200/59

vt 373.621 85.1377
f 47/203/59 78/202/59 49/201/59

v -1787.98 8.4 84.8229
vt 373.621 60.4821
f 47/203/59 79/204/59 78/202/59

vt 340.022 81.2861
f 45/205/59 79/204/59 47/203/59

v -1821.57 8.4 80.9712
vt 340.022 64.3338
f 45/205/59 80/206/59 79/204/59

vt 306.645 77.1762
f 43/207/59 80/206/59 45/205/59

v -1854.95 8.4 76.8613
vt 306.645 68.4437
f 43/207/59 81/208/59 80/206/59

vt 273.505 72.8099
f 81/208/59 43/207/59 41/209/59

vt 295.077 118.338
vn -0.0262982 0.98448 0.173513
vt 261.651 118.338
vt 28.1944 76.9589
f 81/210/60 41/211/29 3/212/31

vt 283.785 141.717
vt 21.8163 76.0603
vt 59.7841 76.0603
vn -0.0263665 0.988574 0.148412
f 81/213/60 3/214/31 2/215/61

vt 329.611 115.583
vn -0.0240906 0.985214 0.169625
vt 295.982 115.583
vt 66.5376 72.6561
f 80/216/62 81/217/60 2/218/61

vt 319.279 140.401
vt 60.8231 75.2039
vt 98.9185 75.2039
vn -0.0244751 0.988775 0.147392
f 80/219/62 2/220/61 5/221/63

vt 364.302 112.614
vn -0.022066 0.985781 0.166581
vt 330.483 112.614
vt 104.99 68.3122
f 79/222/64 80/223/62 5/224/63

vt 354.944 138.398
vt 99.933 73.7874
vt 138.148 73.7874
vn -0.0226805 0.988892 0.146896
f 79/225/64 5/226/63 7/227/65

vt 399.139 109.428
vn -0.0201912 0.986204 0.164298
vt 365.141 109.428
vt 143.543 63.933
f 78/228/66 79/229/64 7/230/65

vt 390.758 135.71
vt 139.13 71.8176
vt 177.457 71.8176
vn -0.0209637 0.988928 0.146907
f 78/231/66 7/232/65 9/233/67

vt 434.107 106.027
vn -0.0184383 0.9865 0.16272
vt 399.943 106.027
vt 182.188 59.524
f 77/234/68 78/235/66 9/236/67

vt 426.698 132.335
vt 178.399 69.3011
vt 216.829 69.3011
vn -0.0193078 0.988885 0.147421
f 77/237/68 9/238/67 11/239/69

vt 469.194 102.411
vn -0.0167834 0.986679 0.161811
vt 434.876 102.411
vt 220.915 55.0905
f 76/240/70 77/241/68 11/242/69

vt 462.742 128.276
vt 217.724 66.2444
vt 256.249 66.2444
vn -0.017697 0.988763 0.148444
f 76/243/70 11/244/69 13/245/71

vt 504.386 98.5784
vn -0.0152054 0.986747 0.161551
vt 469.927 98.5784
vt 259.716 50.6375
f 75/246/72 76/247/70 13/248/71

vt 498.866 123.533
vt 257.089 62.6542
vt 295.701 62.6542
vn -0.0161159 0.988555 0.149996
f 75/249/72 13/250/71 15/251/73

vt 539.67 94.5314
vn -0.0136851 0.986706 0.161937
vt 505.082 94.5314
vt 298.58 46.1695
f 74/252/74 75/253/72 15/254/73

vt 535.047 118.107
vt 296.479 58.5369
vt 335.17 58.5369
vn -0.014549 0.988256 0.152111
f 74/255/74 15/256/73 17/257/75

vt 575.031 90.2702
vn -0.0122046 0.986554 0.16298
vt 540.328 90.2702
vt 337.499 41.6914
f 73/258/76 74/259/74 17/260/75

vt 571.263 112.003
vt 335.879 53.8996
vt 374.638 53.8996
vn -0.0129804 0.987855 0.154836
f 73/261/76 17/262/75 19/263/77

vt 610.457 85.796
vn -0.0107459 0.986283 0.16471
vt 575.65 85.796
vt 376.461 37.2075
f 72/264/78 73/265/76 19/266/77

vt 607.49 105.222
vt 375.271 48.7501
vt 414.092 48.7501
vn -0.0113925 0.987336 0.158236
f 72/267/78 19/268/77 21/269/79

vt 645.932 81.1103
vn -0.00929124 0.985883 0.167175
vt 611.035 81.1103
vt 415.458 32.7226
f 71/270/80 72/271/78 21/272/79

vt 643.705 97.7715
vt 414.641 43.0969
vt 453.514 43.0969
vn -0.00641487 0.98328 0.181985
f 71/273/80 21/274/79 23/275/81

vt 681.443 76.2152
vn -0.00367252 0.98053 0.196333
vt 646.47 76.2152
vt 454.479 28.2413
f 70/276/82 71/277/80 23/278/81

vt 2392.66 11.7568
vn -4.56469e-18 0.976032 0.217629
vt 683.625 50.3546
vt 454.88 11.7568
f 25/279/83 70/280/82 23/281/81

vt 2314.14 50.3546
f 70/280/82 25/279/83 69/282/83

v 255.18 8.4 107.632
vt 2416.78 50.3546
f 69/282/83 25/279/83 82/283/83

usemtl Color_I13
v 152.543 10.4 107.632
vt 2158.27 64.4223
vn -0.345891 0 0.938275
vt 2056.68 62.4223
vt 2158.27 62.4223
f 83/284/84 68/285/84 69/286/84

v 57.2288 10.4 72.4951
vt 2056.68 64.4223
f 68/285/84 83/284/84 84/287/84

vt -2107.05 64.4223
vn -0.345891 0 -0.938275
vt -2208.64 62.4223
vt -2107.05 62.4223
f 84/288/85 67/289/85 68/290/85

v 152.543 10.4 37.3578
vt -2208.64 64.4223
f 67/289/85 84/288/85 85/291/85

usemtl Color_001
v 255.18 8.4 37.3578
vt -2416.78 -91.0644
f 66/179/58 67/181/58 86/292/58

vt -2392.66 153.397
vn -2.34776e-18 -0.96329 -0.268462
vt -683.625 116.148
vn -0.00465105 -0.970555 -0.240836
vt -454.88 153.397
vn -0.00795086 -0.974776 -0.223044
f 66/293/86 27/294/87 64/295/88

v 154.812 -10 36.9993
vt -2316.41 116.148
f 27/294/87 66/293/86 87/296/86

v 255.18 -10 36.9993
vt -2416.78 116.148
f 87/296/86 66/293/86 88/297/86

vt -2316.41 108.306
v 58.4798 -10 73.5397
vt -2220.08 71.7653
f 87/298/26 89/299/26 27/72/26

usemtl Metal_Aluminum_Anodized
vt 7.05419 -0.185185
vn -0.354659 -4.99182e-16 -0.934996
v 58.4798 -12 73.5397
vt 8.96215 -0.222222
vt 8.96215 -0.185185
f 87/300/89 90/301/89 89/302/89

v 154.812 -12 36.9993
vt 7.05419 -0.222222
f 90/301/89 87/300/89 91/303/89

vt -7.99617 -0.222222
vn -0.354659 0 0.934996
vt -6.08821 -0.185185
vt -7.99617 -0.185185
f 90/304/90 26/305/90 89/306/90

v 154.812 -12 110.08
vt -6.08821 -0.222222
f 26/305/90 90/304/90 92/307/90

usemtl Color_001
f 26/73/26 27/72/26 89/299/26

vt -687.698 85.9732
vt -652.721 85.9732
vn -0.0115805 -0.978987 -0.203594
vt -460.735 132.875
f 27/308/87 28/309/91 64/310/88

vt -655.002 63.5082
vt -425.804 116.754
vn -0.0140312 -0.981132 -0.192831
vt -464.677 116.754
f 28/311/91 62/312/92 64/313/88

vt -653.337 80.7225
vt -618.437 80.7225
vn -0.0133606 -0.979696 -0.200041
vt -422.868 128.169
f 28/314/91 29/315/93 62/316/92

vt -620.87 55.4075
vt -388.499 110.51
vn -0.0159526 -0.981995 -0.18823
vt -427.32 110.51
f 29/317/93 60/318/94 62/319/92

vt -619.012 75.7421
vt -584.201 75.7421
vn -0.0151351 -0.980213 -0.197364
vt -385.028 123.534
f 29/320/93 30/321/95 60/322/94

vt -586.728 47.9876
vt -351.175 104.793
vn -0.0178408 -0.98268 -0.184448
vt -389.935 104.793
f 30/323/95 58/324/96 60/325/94

vt -584.74 71.0326
vt -550.03 71.0326
vn -0.0169251 -0.980559 -0.195493
vt -347.225 118.974
f 30/326/95 31/327/97 58/328/96

vt -552.596 41.248
vt -313.849 99.6051
vn -0.0197166 -0.983213 -0.181395
vt -352.539 99.6051
f 31/329/97 56/330/98 58/331/96

vt -550.534 66.5951
vt -515.938 66.5951
vn -0.0187508 -0.980747 -0.194379
vt -309.47 114.494
f 31/332/97 32/333/99 56/334/98

vt -518.499 35.1873
vt -276.536 94.9481
vn -0.0215985 -0.983611 -0.179006
vt -315.147 94.9481
f 32/335/99 54/336/100 56/337/98

vt -516.409 62.4311
vt -481.94 62.4311
vn -0.0206322 -0.980786 -0.193992
vt -271.775 110.097
f 32/338/99 33/339/101 54/340/100

vt -484.461 29.8036
vt -239.252 90.8242
vn -0.0235041 -0.983889 -0.177229
vt -277.777 90.8242
f 33/341/101 52/342/102 54/343/100

vt -482.379 58.5428
vt -448.05 58.5428
vn -0.0225899 -0.980679 -0.194316
vt -234.148 105.79
f 33/344/101 34/345/103 52/346/102

vt -450.502 25.0948
vt -202.014 87.236
vn -0.02545 -0.984056 -0.176028
vt -240.444 87.236
f 34/347/103 50/348/104 52/349/102

vt -448.459 54.9332
vt -414.282 54.9332
vn -0.0246456 -0.980423 -0.195355
vt -196.602 101.581
f 34/350/103 35/351/105 50/352/104

vt -416.648 21.0584
vt -164.837 84.186
vn -0.027453 -0.984118 -0.175381
vt -203.164 84.186
f 35/353/105 48/354/106 50/355/104

vt -414.664 51.6058
vt -380.65 51.6058
vn -0.0268235 -0.980011 -0.197125
vt -159.146 97.4765
f 35/356/105 36/357/107 48/358/106

vt -382.92 17.692
vt -127.739 81.6773
vn -0.0295305 -0.984076 -0.175278
vt -165.954 81.6773
f 36/359/107 46/360/108 48/361/106

vt -381.007 48.5656
vt -347.17 48.5656
vn -0.0291506 -0.979431 -0.199662
vt -121.79 93.4875
f 36/362/107 37/363/109 46/364/108

vt -349.341 14.993
vt -90.7343 79.7133
vn -0.0317009 -0.98393 -0.175719
vt -128.83 79.7133
f 37/365/109 44/366/110 46/367/108

vt -347.503 45.8185
vt -313.853 45.8185
vn -0.0316581 -0.978663 -0.203018
vt -84.5443 89.6252
f 37/368/109 38/369/111 44/370/110

vt -315.934 12.9588
vt -53.8398 78.2977
vn -0.0339845 -0.983675 -0.176718
vt -91.8076 78.2977
f 38/371/111 42/372/112 44/373/110

vt -314.165 43.3715
vt -280.716 43.3715
vn -0.0339712 -0.981114 -0.190425
vt -47.4188 85.903
f 38/374/111 39/375/113 42/376/112

vt -282.72 11.5868
vt -17.0716 77.435
vn -0.0359611 -0.988401 -0.147545
vt -54.904 77.435
f 39/377/113 40/378/114 42/379/112

v 255.18 -10 110.08
vt 2416.78 -21.8633
f 25/68/25 26/70/25 93/380/25

